<mxfile host="app.diagrams.net" modified="2024-01-21T13:48:00.563Z" agent="Mozilla/5.0 (Windows NT 10.0; Win64; x64) AppleWebKit/537.36 (KHTML, like Gecko) Chrome/121.0.0.0 Safari/537.36 Edg/121.0.0.0" etag="5pVLbK2ZYHH-sv83aSa1" version="22.1.21" type="github">
  <diagram name="第 1 页" id="ttvk2VpSIbLEWLcFQqGe">
    <mxGraphModel dx="956" dy="518" grid="1" gridSize="10" guides="1" tooltips="1" connect="1" arrows="1" fold="1" page="1" pageScale="1" pageWidth="827" pageHeight="1169" math="0" shadow="0">
      <root>
        <mxCell id="0" />
        <mxCell id="1" parent="0" />
        <mxCell id="NBXYeHhTZ9dYfxO32vnS-1" value="客厅" style="rounded=0;whiteSpace=wrap;html=1;sketch=1;curveFitting=1;jiggle=2;" vertex="1" parent="1">
          <mxGeometry x="249" y="220" width="330" height="390" as="geometry" />
        </mxCell>
        <mxCell id="NBXYeHhTZ9dYfxO32vnS-2" value="客厅" style="rounded=0;whiteSpace=wrap;html=1;sketch=1;curveFitting=1;jiggle=2;" vertex="1" parent="1">
          <mxGeometry x="249" y="50" width="71" height="170" as="geometry" />
        </mxCell>
        <mxCell id="NBXYeHhTZ9dYfxO32vnS-3" value="厕所" style="rounded=0;whiteSpace=wrap;html=1;sketch=1;curveFitting=1;jiggle=2;" vertex="1" parent="1">
          <mxGeometry x="440" y="50" width="139" height="170" as="geometry" />
        </mxCell>
        <mxCell id="NBXYeHhTZ9dYfxO32vnS-5" value="过道" style="rounded=0;whiteSpace=wrap;html=1;sketch=1;curveFitting=1;jiggle=2;" vertex="1" parent="1">
          <mxGeometry x="324" y="50" width="116" height="170" as="geometry" />
        </mxCell>
        <mxCell id="NBXYeHhTZ9dYfxO32vnS-6" value="沙发" style="rounded=0;whiteSpace=wrap;html=1;sketch=1;curveFitting=1;jiggle=2;" vertex="1" parent="1">
          <mxGeometry x="380" y="265" width="70" height="145" as="geometry" />
        </mxCell>
        <mxCell id="NBXYeHhTZ9dYfxO32vnS-7" value="阳台" style="rounded=0;whiteSpace=wrap;html=1;sketch=1;curveFitting=1;jiggle=2;" vertex="1" parent="1">
          <mxGeometry x="250" y="610" width="330" height="110" as="geometry" />
        </mxCell>
        <mxCell id="NBXYeHhTZ9dYfxO32vnS-9" value="床" style="rounded=0;whiteSpace=wrap;html=1;sketch=1;curveFitting=1;jiggle=2;" vertex="1" parent="1">
          <mxGeometry x="380" y="440" width="200" height="150" as="geometry" />
        </mxCell>
        <mxCell id="NBXYeHhTZ9dYfxO32vnS-12" value="门" style="rounded=0;whiteSpace=wrap;html=1;sketch=1;curveFitting=1;jiggle=2;" vertex="1" parent="1">
          <mxGeometry x="300" y="610" width="210" height="20" as="geometry" />
        </mxCell>
        <mxCell id="NBXYeHhTZ9dYfxO32vnS-13" value="衣架" style="rounded=0;whiteSpace=wrap;html=1;sketch=1;curveFitting=1;jiggle=2;" vertex="1" parent="1">
          <mxGeometry x="249" y="410" width="51" height="80" as="geometry" />
        </mxCell>
        <mxCell id="NBXYeHhTZ9dYfxO32vnS-18" value="上床" style="rounded=0;whiteSpace=wrap;html=1;sketch=1;curveFitting=1;jiggle=2;verticalAlign=top;" vertex="1" parent="1">
          <mxGeometry x="479" y="220" width="100" height="200" as="geometry" />
        </mxCell>
        <mxCell id="NBXYeHhTZ9dYfxO32vnS-15" value="" style="ellipse;whiteSpace=wrap;html=1;sketch=1;curveFitting=1;jiggle=2;" vertex="1" parent="1">
          <mxGeometry x="490" y="290" width="20" height="20" as="geometry" />
        </mxCell>
        <mxCell id="NBXYeHhTZ9dYfxO32vnS-20" value="" style="group" vertex="1" connectable="0" parent="1">
          <mxGeometry x="510" y="225" width="70" height="190" as="geometry" />
        </mxCell>
        <mxCell id="NBXYeHhTZ9dYfxO32vnS-8" value="下桌" style="rounded=0;whiteSpace=wrap;html=1;sketch=1;curveFitting=1;jiggle=2;" vertex="1" parent="NBXYeHhTZ9dYfxO32vnS-20">
          <mxGeometry width="70" height="140" as="geometry" />
        </mxCell>
        <mxCell id="NBXYeHhTZ9dYfxO32vnS-17" value="书架" style="rounded=0;whiteSpace=wrap;html=1;sketch=1;curveFitting=1;jiggle=2;" vertex="1" parent="NBXYeHhTZ9dYfxO32vnS-20">
          <mxGeometry x="39" y="140" width="30" height="50" as="geometry" />
        </mxCell>
        <mxCell id="NBXYeHhTZ9dYfxO32vnS-21" value="冰箱" style="rounded=0;whiteSpace=wrap;html=1;sketch=1;curveFitting=1;jiggle=2;" vertex="1" parent="1">
          <mxGeometry x="249" y="220" width="55" height="55" as="geometry" />
        </mxCell>
        <mxCell id="NBXYeHhTZ9dYfxO32vnS-22" value="鼠子" style="rounded=0;whiteSpace=wrap;html=1;sketch=1;curveFitting=1;jiggle=2;" vertex="1" parent="1">
          <mxGeometry x="254.5" y="510" width="40" height="60" as="geometry" />
        </mxCell>
        <mxCell id="NBXYeHhTZ9dYfxO32vnS-23" value="洗衣机" style="rounded=0;whiteSpace=wrap;html=1;sketch=1;curveFitting=1;jiggle=2;" vertex="1" parent="1">
          <mxGeometry x="524" y="637.5" width="55" height="55" as="geometry" />
        </mxCell>
      </root>
    </mxGraphModel>
  </diagram>
</mxfile>
